<?xml version="1.0" encoding="utf-8"?>
<!-- Generator: Adobe Illustrator 22.0.1, SVG Export Plug-In . SVG Version: 6.00 Build 0)  -->
<svg version="1.1" id="Layer_1" xmlns="http://www.w3.org/2000/svg" xmlns:xlink="http://www.w3.org/1999/xlink" x="0px" y="0px"
	 viewBox="0 0 1778 1781.7" style="enable-background:new 0 0 1778 1781.7;" xml:space="preserve">
<style type="text/css">
	.st0{fill:#FFFDFD;}
	.st1{fill:url(#SVGID_8_);}
	.st2{fill:#DB23CA;}
	.st3{fill:#9520D3;}
	.st4{fill:url(#SVGID_9_);}
	.st5{fill:url(#SVGID_10_);}
	.st6{fill:#009147;}
	.st7{fill:#BDD63B;}
	.st8{fill:#1C442A;}
	.st9{fill:#009345;}
	.st10{fill:#D3BD29;}
	.st11{fill:#006838;}
	.st12{fill:#F9EC31;}
	.st13{clip-path:url(#SVGID_11_);fill:url(#SVGID_12_);}
	.st14{filter:url(#Adobe_OpacityMaskFilter);}
	.st15{fill:url(#SVGID_14_);}
	.st16{mask:url(#SVGID_13_);fill-rule:evenodd;clip-rule:evenodd;fill:#328B09;}
	.st17{clip-path:url(#SVGID_15_);fill:url(#SVGID_16_);}
	.st18{filter:url(#Adobe_OpacityMaskFilter_1_);}
	.st19{fill:url(#SVGID_18_);}
	.st20{mask:url(#SVGID_17_);fill-rule:evenodd;clip-rule:evenodd;fill:#C40015;}
	.st21{clip-path:url(#SVGID_19_);fill:url(#SVGID_20_);}
	.st22{filter:url(#Adobe_OpacityMaskFilter_2_);}
	.st23{fill:url(#SVGID_22_);}
	.st24{mask:url(#SVGID_21_);fill-rule:evenodd;clip-rule:evenodd;fill:#5B0298;}
	.st25{clip-path:url(#SVGID_23_);fill:url(#SVGID_24_);}
	.st26{filter:url(#Adobe_OpacityMaskFilter_3_);}
	.st27{fill:url(#SVGID_26_);}
	.st28{mask:url(#SVGID_25_);fill-rule:evenodd;clip-rule:evenodd;fill:#6A00B8;}
	.st29{clip-path:url(#SVGID_27_);fill:url(#SVGID_28_);}
	.st30{filter:url(#Adobe_OpacityMaskFilter_4_);}
	.st31{fill:url(#SVGID_30_);}
	.st32{mask:url(#SVGID_29_);fill-rule:evenodd;clip-rule:evenodd;fill:#0049E7;}
	.st33{clip-path:url(#SVGID_31_);fill:url(#SVGID_32_);}
	.st34{filter:url(#Adobe_OpacityMaskFilter_5_);}
	.st35{fill:url(#SVGID_34_);}
	.st36{mask:url(#SVGID_33_);fill-rule:evenodd;clip-rule:evenodd;fill:#0131B9;}
	.st37{clip-path:url(#SVGID_35_);fill:url(#SVGID_36_);}
	.st38{filter:url(#Adobe_OpacityMaskFilter_6_);}
	.st39{fill:url(#SVGID_38_);}
	.st40{mask:url(#SVGID_37_);fill-rule:evenodd;clip-rule:evenodd;fill:#5E17A9;}
	.st41{filter:url(#Adobe_OpacityMaskFilter_7_);}
	.st42{fill:url(#SVGID_40_);}
	.st43{mask:url(#SVGID_39_);fill-rule:evenodd;clip-rule:evenodd;fill:#FF6CA8;}
	.st44{filter:url(#Adobe_OpacityMaskFilter_8_);}
	.st45{fill:url(#SVGID_42_);}
	.st46{mask:url(#SVGID_41_);fill-rule:evenodd;clip-rule:evenodd;fill:#FF00D5;}
	.st47{filter:url(#Adobe_OpacityMaskFilter_9_);}
	.st48{fill:url(#SVGID_44_);}
	.st49{mask:url(#SVGID_43_);fill-rule:evenodd;clip-rule:evenodd;fill:#FFFF00;}
	.st50{filter:url(#Adobe_OpacityMaskFilter_10_);}
	.st51{fill:url(#SVGID_46_);}
	.st52{mask:url(#SVGID_45_);fill-rule:evenodd;clip-rule:evenodd;fill:#ECF955;}
	.st53{filter:url(#Adobe_OpacityMaskFilter_11_);}
	.st54{fill:url(#SVGID_48_);}
	.st55{mask:url(#SVGID_47_);fill-rule:evenodd;clip-rule:evenodd;fill:#16EA9E;}
	.st56{filter:url(#Adobe_OpacityMaskFilter_12_);}
	.st57{fill:url(#SVGID_50_);}
	.st58{mask:url(#SVGID_49_);fill-rule:evenodd;clip-rule:evenodd;fill:#2DDAFF;}
	.st59{filter:url(#Adobe_OpacityMaskFilter_13_);}
	.st60{fill:url(#SVGID_52_);}
	.st61{mask:url(#SVGID_51_);fill-rule:evenodd;clip-rule:evenodd;fill:#C835F8;}
	.st62{filter:url(#Adobe_OpacityMaskFilter_14_);}
	.st63{fill:url(#SVGID_54_);}
	.st64{mask:url(#SVGID_53_);fill-rule:evenodd;clip-rule:evenodd;fill:#ECF955;}
	.st65{filter:url(#Adobe_OpacityMaskFilter_15_);}
	.st66{fill:url(#SVGID_56_);}
	.st67{mask:url(#SVGID_55_);fill-rule:evenodd;clip-rule:evenodd;fill:#FF8CC8;}
	.st68{filter:url(#Adobe_OpacityMaskFilter_16_);}
	.st69{fill:url(#SVGID_58_);}
	.st70{mask:url(#SVGID_57_);fill-rule:evenodd;clip-rule:evenodd;fill:#FF00D5;}
	.st71{filter:url(#Adobe_OpacityMaskFilter_17_);}
	.st72{fill:url(#SVGID_60_);}
	.st73{mask:url(#SVGID_59_);fill-rule:evenodd;clip-rule:evenodd;fill:#ECF955;}
	.st74{filter:url(#Adobe_OpacityMaskFilter_18_);}
	.st75{fill:url(#SVGID_62_);}
	.st76{mask:url(#SVGID_61_);fill-rule:evenodd;clip-rule:evenodd;fill:#A1FF9E;}
	.st77{filter:url(#Adobe_OpacityMaskFilter_19_);}
	.st78{fill:url(#SVGID_64_);}
	.st79{mask:url(#SVGID_63_);fill-rule:evenodd;clip-rule:evenodd;fill:#2DDAFF;}
	.st80{filter:url(#Adobe_OpacityMaskFilter_20_);}
	.st81{fill:url(#SVGID_66_);}
	.st82{mask:url(#SVGID_65_);fill-rule:evenodd;clip-rule:evenodd;fill:#F98AFE;}
	.st83{filter:url(#Adobe_OpacityMaskFilter_21_);}
	.st84{fill:url(#SVGID_68_);}
	.st85{mask:url(#SVGID_67_);fill-rule:evenodd;clip-rule:evenodd;}
	.st86{fill:#303030;}
	.st87{fill:#5AD100;}
	.st88{fill:#333333;}
	.st89{fill:#5AD000;}
	.st90{fill:#FF0000;}
	.st91{fill:#00D0FF;}
	.st92{fill:#D0008D;}
	.st93{fill:#FFBA00;}
	.st94{fill:#2D2D2D;}
	.st95{fill:#56D100;}
	.st96{fill:#C9008D;}
	.st97{fill:#D0008F;}
	.st98{fill:#F5B200;}
	.st99{fill:#CB0092;}
</style>
<g>
	<g>
		<path class="st86" d="M621.2,469.2c13.3-6.2,24.6-11.9,36.3-16.6c3-1.2,8.2-0.1,11,1.9c31.7,21.9,63.1,44.2,94.6,66.5
			c3.3,2.3,6.3,5.1,9.4,7.7c-5.6-36.3-11.1-72.2-16.7-109.2c13.7-2.7,25-5,37.3-7.4c1.3,13.9,2.4,27,3.9,40
			c5.2,46.2,17.2,90.6,35.5,133.3c1,2.3,2,4.7,3.6,6.6c17.3,21.7,34.7,43.4,52.7,65.8c1.7-2.2,3.7-4.9,5.7-7.5
			c8.4-11.1,15.5-23.5,25.3-33.1c23.3-23,33.6-52.3,42.6-82.4c11.3-37.7,18.1-76.2,19.8-115.6c0.1-1.9,0.5-3.7,0.9-7.1
			c11.7,2.2,23.1,4.3,35.2,6.5c-0.8,37.3-7.2,73.2-16.7,111.6c4.5-3.6,6.9-5.7,9.5-7.5c32.2-22.8,64.5-45.6,96.6-68.5
			c4.7-3.3,8.8-3.5,14-1c10.4,5.3,21.1,10.1,33.4,15.9c-4,2.4-6.7,4.1-9.5,5.6c-94.4,51.3-171.2,121.8-231.2,210.8
			c-3.4,5.1-4,8.7-0.8,14.3c44.5,76.3,73.2,158.1,85.5,245.6c0.3,2.1,0.9,4.2,1.9,8.9c2.6-5.3,4.2-8.5,5.8-11.8
			c21.2-43.3,49.5-81.4,84.1-115.1c30-29.3,51.2-64.9,70.5-101.7c34.1-64.9,53.9-134.1,60-207.2c0.2-2.1,0.6-4.2,1.2-7.9
			c11,8.4,21.1,15.8,30.6,23.9c1.9,1.6,2.2,6.2,1.9,9.3c-8.4,73.1-30.7,141.9-65.4,206.7c-1.5,2.8-3,5.5-5.7,10.6
			c4.7-2.1,7.4-3.2,10-4.4c63.6-30.2,130.6-42.8,200.9-38.4c5.8,0.4,9.2,2.1,11.5,7.6c3.9,9.3,8.5,18.4,12.7,27.6
			c0.4,0.8,0.4,1.8,0.8,3.6c-112.5-13.2-212.6,15-296.7,90.9c-84.4,76.1-122.4,173-120.4,286.6c-13.1,0-25.6,0-39.3,0
			c8.9-69.9,8.8-139.4-4.1-208.6c-12.9-68.9-36-134.1-70.9-197.2c-35.3,62.7-58.3,128-71.2,197c-12.9,68.9-13.4,138.3-4,208.6
			c-13.6,0-26.2,0-39.7,0c2.5-113.4-35.8-210.2-120-286.3c-84-75.8-183.8-104.2-297.9-90.9c5.9-12.6,11.1-24.5,17.3-35.9
			c1.2-2.2,6.6-2.7,10.2-2.9c70.9-4.4,138.5,8.6,202.4,39.8c1.4,0.7,2.9,1.2,6.2,2.5c-1.9-3.9-3-6.6-4.3-9.1
			c-35.1-64.7-56.9-133.6-66.4-206.5c-0.8-6.5,0.6-10.7,6-14.4c8.7-6.1,17.1-12.8,26.5-20c2.9,20.5,4.9,39.8,8.3,58.8
			c16.4,91.5,53.6,173.6,112.1,245.8c13.3,16.4,29.6,30.3,43.4,46.3c22.2,25.8,40.1,54.4,54.5,85.3c0.9,1.8,2,3.5,3.3,5.6
			c5.4-26.4,9.9-52.1,16.1-77.4c15-61.2,38.6-119,70.5-173.3c4.2-7.1,3.5-11.8-1-18.5C801.1,595.9,725.1,526.4,632,475.5
			C629,473.8,626.1,472.1,621.2,469.2z"/>
		<path class="st86" d="M1463.5,931c-21.7-1.3-42.4-4.2-63.1-3.6c-144.3,4.3-250.8,70.3-318.9,197.6c-4.2,7.9-8.5,11.1-17.2,10.4
			c-8.7-0.7-17.4-0.2-29-0.2c10.3-19.6,18.1-38,28.8-54.5c90.6-139.4,219.2-201.3,384.7-187.2c7.8,0.7,11.9,3.2,12.2,11.7
			C1461.2,914,1462.6,922.7,1463.5,931z"/>
		<path class="st86" d="M739.4,1135.3c-12.6,0-23.3,0.7-33.9-0.4c-3.4-0.3-7.6-4.7-9.4-8.2c-28-56.5-67.9-102.7-120.2-137.8
			c-77.7-52-163.1-70.9-255.7-57.5c-2.1,0.3-4.2,0.6-7.7,1.1c1.3-11.5,1.8-22.2,4.1-32.5c0.6-2.7,6.8-5.5,10.6-6
			c39.8-4.9,79.6-4.6,119,3.4c134,27.3,230.4,103,288.7,226.9C736.3,1127.3,737.4,1130.5,739.4,1135.3z"/>
		<path class="st6" d="M704,634c-1.5,31.6-13,61.9-35,88.4c-4.7,5.7-8.8,6.4-13.8,0.5c-26.6-31.5-38.4-67.6-34.7-108.7
			c2.7-29.6,14.4-55.4,32.8-78.3c7.5-9.2,8-8.9,15.8-0.2C693.8,562.8,703.6,595.3,704,634z"/>
		<path class="st87" d="M1113.9,729.2c-23.5-23.5-37-51.4-40.4-83.3c-4.5-42.4,6.1-80.8,35.2-113.1c3.5-3.9,5.7-6.2,10.3-1.2
			c49.2,53.8,50.5,138.9-1.2,194.8C1117,727.3,1115.8,727.8,1113.9,729.2z"/>
		<path class="st88" d="M700.4,776.8c0.2-23.5,19-41.8,42.7-41.4c23.5,0.3,41.5,19.1,41.1,43c-0.4,23.1-19,41.2-42.1,41
			C718.5,819.1,700.2,800.4,700.4,776.8z"/>
		<path class="st88" d="M1034.2,819.2c-23.6,0.1-42.3-18.3-42.5-41.8c-0.2-23.3,18.7-42.1,42.3-42.1c23.1,0,41.7,18.3,42,41.3
			C1076.2,800,1057.5,819.1,1034.2,819.2z"/>
		<path class="st89" d="M513,785.3c-1.3,33.3-15.5,58-42.4,74c-11.5,6.9-25.8,9.2-39,13.3c-5.4,1.7-8-1.2-7.3-6.5
			c4.9-41.6,35.9-76,77.9-80.8C505.5,784.9,508.9,785.3,513,785.3z"/>
		<path class="st87" d="M1261.9,784.7c26.6-0.1,46.8,9.3,63.8,26c13.7,13.4,21.8,30,24.9,48.9c1.8,10.6-0.7,13.1-11.5,12.3
			c-30.3-2.2-63.7-30.6-72.1-61.6C1264.9,802.3,1263.7,794,1261.9,784.7z"/>
		<path class="st87" d="M960.2,484.4c0.6,6.4-1,9.1-8.5,8.3c-35.5-3.8-66.6-33.2-72.5-69.5c-1.9-11.7,1.3-15,13-12.8
			c21.4,4,38.3,15.4,51.6,32.4C953.4,455,958.6,469,960.2,484.4z"/>
		<path class="st88" d="M923.4,538.3c0,19.8-15.8,35.7-35.4,35.6c-19.6-0.1-35.4-16.2-35.3-35.8c0.1-19.2,15.9-34.9,35-35.1
			C907.5,502.9,923.4,518.6,923.4,538.3z"/>
		<path class="st90" d="M1434.8,821.9c-36.8,15-86.8-13.6-95.1-53.8C1367.6,754.2,1424.1,773.7,1434.8,821.9z"/>
		<path class="st90" d="M436.3,767.1c-5.5,39.5-59.2,70.4-94.7,54.9C347.2,783.1,395.7,754.7,436.3,767.1z"/>
		<path class="st91" d="M531,703.1c-38.6,9.9-87.6-28-86.7-66.8C482.4,626.7,527,660.8,531,703.1z"/>
		<path class="st91" d="M973.9,703.4c-14.4-37.2,17.6-90.3,56.2-93.9C1044,646.1,1015.4,694.5,973.9,703.4z"/>
		<path class="st91" d="M1257.4,689.8c-2-39.8,45-80.2,82.7-71.6C1341.9,657.4,1299.6,694.3,1257.4,689.8z"/>
		<path class="st92" d="M731.1,628.5c38-13.4,86.4,14.4,94.2,53.7C791.6,698.7,739.1,669,731.1,628.5z"/>
		<path class="st90" d="M418.5,999.8c15.4-33.6,66.9-47.2,95-25.6C497.6,1007.1,452,1019.6,418.5,999.8z"/>
		<path class="st90" d="M1357.6,999.2c-29.7,21.3-79.5,7.9-94.9-24.9C1290.1,952.6,1339.6,965.4,1357.6,999.2z"/>
		<path class="st90" d="M608.3,482.8c20.5,26.4,7.3,76.2-23.9,89.8C563.9,546.3,577.2,496.4,608.3,482.8z"/>
		<path class="st90" d="M847.7,413.5c20.5,26.4,7.3,76.2-23.9,89.8C803.3,477.1,816.6,427.2,847.7,413.5z"/>
		<path class="st93" d="M1178.7,493.5c27.2,19.4,28.9,70.9,2.9,92.9C1154.5,567.1,1152.8,515.5,1178.7,493.5z"/>
		<path class="st93" d="M886.8,833.6c31.8,10.5,48.5,59.1,30.3,87.8C885.4,911.1,868.6,862.3,886.8,833.6z"/>
		<path class="st88" d="M1111.8,970c-13.8-0.1-24.6-11-24.6-24.8c-0.1-14.2,11.3-25.3,25.4-25c13.5,0.3,24.5,11.7,24.3,25.3
			C1136.7,959.1,1125.5,970,1111.8,970z"/>
		<path class="st94" d="M689.1,945.2c-0.1,14.1-11.5,25.2-25.7,24.8c-13.6-0.4-24.2-11.6-23.9-25.5c0.3-13.8,11.3-24.4,25.1-24.3
			C678.2,920.3,689.2,931.5,689.1,945.2z"/>
		<path class="st90" d="M868.1,924.5c8.1,28.5-9.6,58.8-36.7,64C820.8,963.8,839.9,930,868.1,924.5z"/>
		<path class="st95" d="M378.3,942.4c-2.7,19.2-27.7,40.1-53.4,35.5c-6.7-1.2-5.1-5.8-2.9-10.2C331.4,948.9,355.9,936,378.3,942.4z"
			/>
		<path class="st87" d="M1409.5,940.8c15.8,0.4,26.9,5.2,34.7,16.4c2.5,3.6,5.4,6.9,7.9,10.5c1.5,2.1,2.7,4.6,4,6.8
			c-2.7,1.2-5.3,3.3-8,3.4c-23.9,1.1-38.8-10.8-48.7-29c-0.8-1.5,1.3-6.1,3.3-7.2C1405.1,940.3,1408.8,940.9,1409.5,940.8z"/>
		<path class="st96" d="M1383.5,877c5.1-25.1,33-41.2,56.7-33.2C1437.5,867.2,1409.4,883.9,1383.5,877z"/>
		<path class="st96" d="M392.5,876.7c-23.6,7.9-49.2-6.4-57.4-32.1C355.5,833.6,387.8,851.7,392.5,876.7z"/>
		<path class="st96" d="M1263.7,872.2c-4.2,24.6-28.8,40.4-55.3,35.5C1208.2,884.5,1239.4,864.6,1263.7,872.2z"/>
		<path class="st90" d="M1025.3,478.4c-1.6-23.5,19.5-44.4,41.9-42.2C1071.2,456.7,1050.1,478.2,1025.3,478.4z"/>
		<path class="st97" d="M479.5,577.3c24.2,0.5,42.6,19.1,41.4,41.1C499.9,621.5,479.6,601.6,479.5,577.3z"/>
		<path class="st98" d="M387.5,678c22-10.1,46.6-1.5,55.2,18.8C425.1,708.7,398.1,699.8,387.5,678z"/>
		<path class="st98" d="M518.6,858.7c24,3.1,40.3,23.5,36.9,45.2C534.2,904.7,516.1,882.9,518.6,858.7z"/>
		<path class="st91" d="M525.1,825.4c20.3-13.2,45.9-8.3,57.4,10.6C566.9,850.3,538.9,845.4,525.1,825.4z"/>
		<path class="st91" d="M1191.1,828.3c20.3-13.2,45.9-8.3,57.4,10.6C1232.8,853.3,1204.8,848.3,1191.1,828.3z"/>
		<path class="st99" d="M1255.6,619.1c-2-22.3,17.2-41.8,40.2-41.5C1298.9,598.5,1279.7,618.7,1255.6,619.1z"/>
		<path class="st93" d="M1327.2,691.8c13.9-17.6,41.3-18.4,57.7-2.4C1372.8,706.7,1344.9,708.1,1327.2,691.8z"/>
	</g>
	<g>
		<path class="st6" d="M385.3,1310.5l22.4-66.5c1.4-4.4,3.4-7.6,5.9-9.6c2.5-2,5.8-3,10-3h18.3c5.3,0,9.1,1,11.4,3.1
			c2.3,2,3.5,5.4,3.5,10c0,4.2-1.1,7.4-3.3,9.6c-2.2,2.2-5.5,3.3-9.7,3.3h-1.9l3.3,87.5h2c4.2,0,7.4,1.1,9.5,3.2
			c2.1,2.2,3.2,5.3,3.2,9.4c0,4.6-1.1,7.9-3.3,10c-2.2,2-6,3.1-11.3,3.1h-26.4c-5.3,0-9.1-1-11.3-3s-3.3-5.3-3.3-10
			c0-4.1,1.1-7.3,3.2-9.4c2.2-2.2,5.3-3.2,9.6-3.2h1.9l-1.6-71.6l-17.1,53.3c-1.3,4-3,6.9-5.3,8.6c-2.3,1.8-5.5,2.6-9.6,2.6
			c-4.1,0-7.3-0.9-9.7-2.6c-2.4-1.8-4.2-4.6-5.5-8.6l-17-53.3l-1.6,71.6h1.9c4.2,0,7.4,1.1,9.6,3.2c2.2,2.2,3.2,5.3,3.2,9.4
			c0,4.6-1.1,7.9-3.4,10c-2.3,2-6,3.1-11.3,3.1h-26.5c-5.2,0-9-1-11.3-3.1c-2.3-2-3.4-5.4-3.4-10c0-4.1,1.1-7.3,3.2-9.4
			c2.2-2.2,5.3-3.2,9.6-3.2h1.9l3.4-87.5h-1.9c-4.2,0-7.5-1.1-9.7-3.3c-2.2-2.2-3.3-5.4-3.3-9.6c0-4.6,1.2-7.9,3.5-10
			c2.3-2,6.1-3.1,11.4-3.1h18.3c4.1,0,7.3,1,9.8,2.9c2.5,2,4.5,5.2,6,9.6L385.3,1310.5z"/>
		<path class="st6" d="M563,1256.1h-54.6v30h20.7v-1.4c0-4.5,1-7.8,2.9-10c2-2.2,4.9-3.3,8.9-3.3c3.5,0,6.4,1,8.6,3
			c2.2,2,3.3,4.5,3.3,7.6c0,0.2,0,0.7,0.1,1.5c0.1,0.9,0.1,1.7,0.1,2.6v24.3c0,5.2-0.9,9-2.8,11.3c-1.9,2.3-4.9,3.4-9.2,3.4
			c-4,0-7-1.1-9-3.2c-2-2.1-3.1-5.2-3.1-9.4v-2.1h-20.7v35.1H563v-14c0-5.2,1-9,3-11.3c2-2.3,5.3-3.4,9.8-3.4c4.5,0,7.6,1.1,9.6,3.3
			c1.9,2.2,2.9,6,2.9,11.3v28.4c0,4.2-0.8,7-2.5,8.4c-1.6,1.4-4.9,2.1-9.7,2.1h-96.1c-5.2,0-8.9-1-11.1-3.1c-2.2-2-3.3-5.4-3.3-10
			c0-4.1,1.1-7.3,3.2-9.4c2.1-2.2,5.2-3.2,9.3-3.2h2v-87.5h-2c-4,0-7.1-1.1-9.2-3.3c-2.2-2.2-3.2-5.4-3.2-9.6c0-4.5,1.1-7.8,3.4-9.9
			c2.3-2.1,5.9-3.1,11-3.1H576c4.8,0,8,0.7,9.7,2.2c1.7,1.4,2.5,4.3,2.5,8.6v26.3c0,5.3-1,9.1-2.9,11.4c-2,2.3-5.1,3.5-9.5,3.5
			c-4.5,0-7.8-1.2-9.8-3.5c-2-2.3-3-6.1-3-11.4V1256.1z"/>
		<path class="st6" d="M624.1,1344.9v-87.5h-2c-4.2,0-7.4-1.1-9.6-3.3c-2.2-2.2-3.3-5.4-3.3-9.6c0-4.5,1.2-7.8,3.5-9.9
			c2.3-2.1,6.1-3.1,11.4-3.1h22.1h6.9c16.4,0,28.3,0.7,35.9,2.1c7.6,1.4,14,3.8,19.4,7c9.5,5.6,16.7,13.7,21.8,24.1
			c5,10.4,7.6,22.5,7.6,36.2c0,14.5-2.9,27.1-8.6,38c-5.8,10.8-13.9,19-24.5,24.6c-4.8,2.5-10.4,4.3-16.8,5.5
			c-6.4,1.1-16,1.7-28.6,1.7h-13h-22.1c-5.4,0-9.2-1-11.5-3c-2.3-2-3.4-5.3-3.4-10c0-4.1,1.1-7.3,3.3-9.4c2.2-2.2,5.4-3.2,9.6-3.2
			H624.1z M654.4,1256.8v88h6.7c14.8,0,25.7-3.6,32.7-10.9c7-7.2,10.6-18.4,10.6-33.4c0-14.8-3.6-25.8-10.7-33.1
			c-7.2-7.3-17.9-10.9-32.3-10.9c-1.9,0-3.3,0-4.3,0.1C656,1256.7,655.2,1256.8,654.4,1256.8z"/>
		<path class="st7" d="M789.7,1354h7.9c4.6,0,7.9,0.6,9.7,1.9c1.9,1.3,2.8,3.3,2.8,6.2c0,3.2-0.8,5.4-2.5,6.6
			c-1.6,1.2-5.2,1.8-10.8,1.8h-25.7h-5.3c-2.9,0-5.1-0.7-6.5-2.1c-1.4-1.4-2.2-3.5-2.2-6.3c0-3.1,0.8-5.2,2.5-6.3
			c1.7-1.2,4.9-1.8,9.6-1.8h2.1v-105.7h-1.9c-4.7,0-7.9-0.6-9.7-1.9c-1.8-1.3-2.6-3.4-2.6-6.6c0-2.9,0.7-5,2.2-6.4
			c1.4-1.4,3.7-2.1,6.7-2.1h5h24.5c6.3,0,10.2,0.6,11.9,1.8c1.7,1.2,2.5,3.4,2.5,6.6c0,3.1-1.1,5.3-3.2,6.6c-2.1,1.3-6.1,1.9-12,1.9
			h-5.3v40.8h56.2v-40.8h-8c-4.5,0-7.6-0.7-9.6-2c-1.9-1.3-2.9-3.5-2.9-6.5c0-3.2,0.9-5.4,2.6-6.6c1.8-1.2,6.1-1.8,13-1.8h23.4h5.3
			c2.8,0,4.9,0.7,6.4,2.1c1.4,1.4,2.2,3.5,2.2,6.3c0,3.1-0.8,5.2-2.5,6.5c-1.6,1.3-4.6,1.9-8.8,1.9h-2.8V1354h1.9
			c4.7,0,7.9,0.6,9.6,1.8c1.7,1.2,2.6,3.3,2.6,6.3c0,3.2-0.8,5.4-2.5,6.6c-1.6,1.2-5.4,1.8-11.4,1.8h-24.3c-6.3,0-10.4-0.6-12.1-1.8
			c-1.7-1.2-2.6-3.4-2.6-6.6c0-3.1,1-5.2,3.1-6.3c2-1.2,5.9-1.8,11.6-1.8h5.8v-48.8h-56.2V1354z"/>
		<path class="st7" d="M943.8,1248.3h-17.1c-4.8,0-8.1-0.6-10-1.9s-2.9-3.5-2.9-6.5c0-3.2,0.8-5.4,2.5-6.6c1.7-1.2,6.3-1.8,13.8-1.8
			h33.4c4.3,0,7.2,0.6,8.7,1.7c1.5,1.1,2.9,3.2,4.2,6.3l45.9,114.6h2c4.2,0,7.1,0.6,8.7,1.8c1.6,1.2,2.3,3.3,2.3,6.3
			c0,3.2-0.7,5.4-2.2,6.6c-1.5,1.2-4.3,1.8-8.3,1.8h-31.9c-5.9,0-9.8-0.6-11.4-1.8c-1.7-1.2-2.5-3.4-2.5-6.6c0-3,0.9-5.1,2.8-6.3
			c1.8-1.2,5.3-1.8,10.4-1.8h10.9l-11.4-27.9h-59.6l-10.1,27.9h11.4c5.2,0,8.7,0.6,10.6,1.8c1.9,1.2,2.8,3.3,2.8,6.3
			c0,3.2-0.8,5.4-2.5,6.6c-1.7,1.2-5.4,1.8-11.1,1.8h-30.9c-5,0-8.3-0.6-10-1.8c-1.6-1.2-2.5-3.4-2.5-6.6c0-3.1,0.8-5.2,2.5-6.3
			c1.6-1.2,4.8-1.8,9.5-1.8h2.2L943.8,1248.3z M937.8,1310.5h48l-25.2-62.2L937.8,1310.5z"/>
		<path class="st7" d="M1080,1354h8c4.5,0,7.7,0.6,9.6,1.9c1.9,1.3,2.8,3.3,2.8,6.2c0,3.1-0.8,5.3-2.5,6.6c-1.6,1.3-4.7,1.9-9.3,1.9
			h-39.4c-2.7,0-4.7-0.7-6.1-2.2c-1.4-1.4-2.1-3.5-2.1-6.3c0-2.9,0.8-5,2.3-6.2c1.6-1.2,4.1-1.9,7.7-1.9h3.9h6.8v-106.8h-6.8
			c-5.9,0-9.7-0.5-11.4-1.6c-1.7-1.1-2.6-3.2-2.6-6.2c0-2.7,0.7-4.7,2.1-6c1.4-1.3,3.4-2,6.2-2h49.5c12,0,20.9,0.6,26.8,1.7
			c5.9,1.1,10.9,3.1,15,5.8c5.2,3.5,9.4,8.2,12.4,14c3,5.8,4.5,12,4.5,18.7c0,9-2.8,16.7-8.3,23.2c-5.5,6.5-13.2,10.9-23.1,13.4
			c2,1.2,3.9,2.5,5.5,4.1c1.6,1.6,3.1,3.4,4.6,5.6l23.6,36.1h3.9c4.4,0,7.4,0.6,9,1.8c1.6,1.2,2.5,3.3,2.5,6.3
			c0,2.7-0.7,4.8-2.1,6.3c-1.4,1.4-3.4,2.2-6,2.2h-13.3c-3.8,0-7.6-2.8-11.3-8.4c-0.5-0.5-0.8-0.9-1.1-1.2l-22.5-34.1
			c-4.6-7-8.4-11.5-11.4-13.5c-3-2-7-3.1-11.9-3.1H1080V1354z M1080,1247.2v47.4h24.3c11,0,19.2-2,24.7-5.9
			c5.5-3.9,8.3-9.8,8.3-17.7c0-7.9-2.7-13.8-8.1-17.8c-5.4-4-13.5-6-24.2-6H1080z"/>
		<path class="st7" d="M1192.3,1248.3h-1.5c-3.9,0-6.7-0.6-8.3-1.9c-1.6-1.3-2.5-3.5-2.5-6.5c0-2.7,0.7-4.8,2.1-6.3
			c1.4-1.4,3.4-2.2,6.1-2.2h35.6c4.6,0,7.7,0.6,9.3,1.9c1.6,1.3,2.4,3.4,2.4,6.6c0,2.9-0.9,5-2.6,6.4c-1.7,1.4-4.5,2.1-8.2,2.1
			h-12.9l39.9,102.3l38.8-102.3h-15.6c-3.7,0-6.4-0.7-8.2-2.1c-1.8-1.4-2.6-3.5-2.6-6.4c0-3.1,0.8-5.3,2.5-6.6
			c1.6-1.2,4.7-1.9,9.3-1.9h36.8c2.7,0,4.7,0.7,6,2.2c1.4,1.4,2.1,3.5,2.1,6.3c0,3.1-0.8,5.2-2.5,6.5c-1.6,1.3-4.5,1.9-8.6,1.9h-1.4
			l-42.2,110.5c-2.4,5.9-4.3,9.5-5.8,11s-3.2,2.2-5.4,2.2h-6.7c-5.2,0-9.3-4.1-12.6-12.4l-0.2-0.7L1192.3,1248.3z"/>
		<path class="st7" d="M1376.4,1248.3h-17.1c-4.8,0-8.1-0.6-10-1.9s-2.9-3.5-2.9-6.5c0-3.2,0.8-5.4,2.5-6.6
			c1.7-1.2,6.3-1.8,13.8-1.8h33.4c4.3,0,7.2,0.6,8.7,1.7c1.5,1.1,2.9,3.2,4.2,6.3l45.9,114.6h2c4.2,0,7.1,0.6,8.7,1.8
			c1.6,1.2,2.3,3.3,2.3,6.3c0,3.2-0.7,5.4-2.2,6.6c-1.5,1.2-4.3,1.8-8.3,1.8h-31.9c-5.9,0-9.8-0.6-11.4-1.8
			c-1.7-1.2-2.5-3.4-2.5-6.6c0-3,0.9-5.1,2.8-6.3c1.8-1.2,5.3-1.8,10.4-1.8h10.9l-11.4-27.9h-59.6l-10.1,27.9h11.4
			c5.2,0,8.7,0.6,10.6,1.8c1.9,1.2,2.8,3.3,2.8,6.3c0,3.2-0.8,5.4-2.5,6.6c-1.7,1.2-5.4,1.8-11.1,1.8h-30.9c-5,0-8.3-0.6-10-1.8
			c-1.6-1.2-2.5-3.4-2.5-6.6c0-3.1,0.8-5.2,2.5-6.3c1.6-1.2,4.8-1.8,9.5-1.8h2.2L1376.4,1248.3z M1370.4,1310.5h48l-25.2-62.2
			L1370.4,1310.5z"/>
	</g>
</g>
</svg>
